<svg width="20" height="20" viewBox="0 0 20 20" fill="none" xmlns="http://www.w3.org/2000/svg">
<path fill-rule="evenodd" clip-rule="evenodd" d="M0.990234 5.24002C0.991545 4.94455 1.05104 4.65222 1.16533 4.37974C1.27961 4.10726 1.44645 3.85996 1.65631 3.65195C1.86617 3.44395 2.11495 3.27932 2.38843 3.16746C2.66192 3.0556 2.95476 2.99871 3.25023 3.00002H16.7502C17.0457 3.00002 17.3383 3.05822 17.6113 3.17129C17.8843 3.28437 18.1323 3.4501 18.3412 3.65903C18.5502 3.86796 18.7159 4.116 18.829 4.38898C18.942 4.66197 19.0002 4.95455 19.0002 5.25002L19.0102 14.75C19.0102 15.0455 18.952 15.3381 18.839 15.6111C18.7259 15.884 18.5602 16.1321 18.3512 16.341C18.1423 16.5499 17.8943 16.7157 17.6213 16.8288C17.3483 16.9418 17.0557 17 16.7602 17H3.26023C2.66141 16.9982 2.08765 16.7595 1.66421 16.336C1.24078 15.9126 1.00208 15.3388 1.00023 14.74L0.990234 5.24002ZM9.25023 14.76V14.135C9.25023 13.9361 9.17122 13.7453 9.03056 13.6047C8.88991 13.464 8.69915 13.385 8.50023 13.385H3.25023C3.05132 13.385 2.86056 13.464 2.7199 13.6047C2.57925 13.7453 2.50023 13.9361 2.50023 14.135V14.75C2.50023 15.164 2.83623 15.5 3.25023 15.5H8.62323C8.79845 15.4709 8.95763 15.3805 9.07245 15.245C9.18727 15.1095 9.25027 14.9376 9.25023 14.76ZM10.7502 14.76C10.7502 14.9376 10.8132 15.1095 10.928 15.245C11.0428 15.3805 11.202 15.4709 11.3772 15.5H16.7502C16.9491 15.5 17.1399 15.421 17.2806 15.2804C17.4212 15.1397 17.5002 14.9489 17.5002 14.75V14.135C17.5002 13.9361 17.4212 13.7453 17.2806 13.6047C17.1399 13.464 16.9491 13.385 16.7502 13.385H11.5002C11.3013 13.385 11.1106 13.464 10.9699 13.6047C10.8293 13.7453 10.7502 13.9361 10.7502 14.135V14.76ZM17.5002 11.13V10.505C17.5002 10.3061 17.4212 10.1153 17.2806 9.97469C17.1399 9.83404 16.9491 9.75502 16.7502 9.75502H11.5002C11.3013 9.75502 11.1106 9.83404 10.9699 9.97469C10.8293 10.1153 10.7502 10.3061 10.7502 10.505V11.13C10.7502 11.544 11.0862 11.88 11.5002 11.88H16.7502C16.9491 11.88 17.1399 11.801 17.2806 11.6604C17.4212 11.5197 17.5002 11.3289 17.5002 11.13ZM9.25023 11.13V10.505C9.25023 10.3061 9.17122 10.1153 9.03056 9.97469C8.88991 9.83404 8.69915 9.75502 8.50023 9.75502H3.25023C3.05132 9.75502 2.86056 9.83404 2.7199 9.97469C2.57925 10.1153 2.50023 10.3061 2.50023 10.505V11.13C2.50023 11.544 2.83623 11.88 3.25023 11.88H8.50023C8.69915 11.88 8.88991 11.801 9.03056 11.6604C9.17122 11.5197 9.25023 11.3289 9.25023 11.13ZM17.5002 7.50002V6.87502C17.5002 6.67611 17.4212 6.48534 17.2806 6.34469C17.1399 6.20404 16.9491 6.12502 16.7502 6.12502H11.5002C11.3013 6.12502 11.1106 6.20404 10.9699 6.34469C10.8293 6.48534 10.7502 6.67611 10.7502 6.87502V7.50002C10.7502 7.91402 11.0862 8.25002 11.5002 8.25002H16.7502C16.9491 8.25002 17.1399 8.171 17.2806 8.03035C17.4212 7.8897 17.5002 7.69893 17.5002 7.50002ZM9.25023 7.50002V6.87502C9.25023 6.67611 9.17122 6.48534 9.03056 6.34469C8.88991 6.20404 8.69915 6.12502 8.50023 6.12502H3.25023C3.05132 6.12502 2.86056 6.20404 2.7199 6.34469C2.57925 6.48534 2.50023 6.67611 2.50023 6.87502V7.50002C2.50023 7.91402 2.83623 8.25002 3.25023 8.25002H8.50023C8.69915 8.25002 8.88991 8.171 9.03056 8.03035C9.17122 7.8897 9.25023 7.69893 9.25023 7.50002Z" fill="#18181B"/>
</svg>
