<svg width="15" height="16" viewBox="0 0 15 16" fill="none" xmlns="http://www.w3.org/2000/svg">
<path fill-rule="evenodd" clip-rule="evenodd" d="M1.5 14.5V1.5H1.25C1.05109 1.5 0.860322 1.42098 0.71967 1.28033C0.579018 1.13968 0.5 0.948912 0.5 0.75C0.5 0.551088 0.579018 0.360322 0.71967 0.21967C0.860322 0.0790175 1.05109 4.19176e-09 1.25 0H13.75C13.9489 4.19176e-09 14.1397 0.0790175 14.2803 0.21967C14.421 0.360322 14.5 0.551088 14.5 0.75C14.5 0.948912 14.421 1.13968 14.2803 1.28033C14.1397 1.42098 13.9489 1.5 13.75 1.5H13.5V14.5H13.75C13.9489 14.5 14.1397 14.579 14.2803 14.7197C14.421 14.8603 14.5 15.0511 14.5 15.25C14.5 15.4489 14.421 15.6397 14.2803 15.7803C14.1397 15.921 13.9489 16 13.75 16H10.25C10.0511 16 9.86032 15.921 9.71967 15.7803C9.57902 15.6397 9.5 15.4489 9.5 15.25V12.75C9.5 12.5511 9.42098 12.3603 9.28033 12.2197C9.13968 12.079 8.94891 12 8.75 12H6.25C6.05109 12 5.86032 12.079 5.71967 12.2197C5.57902 12.3603 5.5 12.5511 5.5 12.75V15.25C5.5 15.4489 5.42098 15.6397 5.28033 15.7803C5.13968 15.921 4.94891 16 4.75 16H1.25C1.05109 16 0.860322 15.921 0.71967 15.7803C0.579018 15.6397 0.5 15.4489 0.5 15.25C0.5 15.0511 0.579018 14.8603 0.71967 14.7197C0.860322 14.579 1.05109 14.5 1.25 14.5H1.5ZM4.5 3.5C4.5 3.36739 4.55268 3.24021 4.64645 3.14645C4.74021 3.05268 4.86739 3 5 3H6C6.13261 3 6.25979 3.05268 6.35355 3.14645C6.44732 3.24021 6.5 3.36739 6.5 3.5V4.5C6.5 4.63261 6.44732 4.75979 6.35355 4.85355C6.25979 4.94732 6.13261 5 6 5H5C4.86739 5 4.74021 4.94732 4.64645 4.85355C4.55268 4.75979 4.5 4.63261 4.5 4.5V3.5ZM5 7C4.86739 7 4.74021 7.05268 4.64645 7.14645C4.55268 7.24021 4.5 7.36739 4.5 7.5V8.5C4.5 8.63261 4.55268 8.75979 4.64645 8.85355C4.74021 8.94732 4.86739 9 5 9H6C6.13261 9 6.25979 8.94732 6.35355 8.85355C6.44732 8.75979 6.5 8.63261 6.5 8.5V7.5C6.5 7.36739 6.44732 7.24021 6.35355 7.14645C6.25979 7.05268 6.13261 7 6 7H5ZM8.5 3.5C8.5 3.36739 8.55268 3.24021 8.64645 3.14645C8.74021 3.05268 8.86739 3 9 3H10C10.1326 3 10.2598 3.05268 10.3536 3.14645C10.4473 3.24021 10.5 3.36739 10.5 3.5V4.5C10.5 4.63261 10.4473 4.75979 10.3536 4.85355C10.2598 4.94732 10.1326 5 10 5H9C8.86739 5 8.74021 4.94732 8.64645 4.85355C8.55268 4.75979 8.5 4.63261 8.5 4.5V3.5ZM9 7C8.86739 7 8.74021 7.05268 8.64645 7.14645C8.55268 7.24021 8.5 7.36739 8.5 7.5V8.5C8.5 8.63261 8.55268 8.75979 8.64645 8.85355C8.74021 8.94732 8.86739 9 9 9H10C10.1326 9 10.2598 8.94732 10.3536 8.85355C10.4473 8.75979 10.5 8.63261 10.5 8.5V7.5C10.5 7.36739 10.4473 7.24021 10.3536 7.14645C10.2598 7.05268 10.1326 7 10 7H9Z" fill="#18181B"/>
</svg>
