<svg width="20" height="20" viewBox="0 0 20 20" fill="none" xmlns="http://www.w3.org/2000/svg">
<path fill-rule="evenodd" clip-rule="evenodd" d="M1 2.75C1 2.55109 1.07902 2.36032 1.21967 2.21967C1.36032 2.07902 1.55109 2 1.75 2H12.25C12.4489 2 12.6397 2.07902 12.7803 2.21967C12.921 2.36032 13 2.55109 13 2.75C13 2.94891 12.921 3.13968 12.7803 3.28033C12.6397 3.42098 12.4489 3.5 12.25 3.5H12V17.25C12 17.4489 11.921 17.6397 11.7803 17.7803C11.6397 17.921 11.4489 18 11.25 18H9.75C9.55109 18 9.36032 17.921 9.21967 17.7803C9.07902 17.6397 9 17.4489 9 17.25V14.75C9 14.5511 8.92098 14.3603 8.78033 14.2197C8.63968 14.079 8.44891 14 8.25 14H5.75C5.55109 14 5.36032 14.079 5.21967 14.2197C5.07902 14.3603 5 14.5511 5 14.75V17.25C5 17.4489 4.92098 17.6397 4.78033 17.7803C4.63968 17.921 4.44891 18 4.25 18H1.75C1.55109 18 1.36032 17.921 1.21967 17.7803C1.07902 17.6397 1 17.4489 1 17.25C1 17.0511 1.07902 16.8603 1.21967 16.7197C1.36032 16.579 1.55109 16.5 1.75 16.5H2V3.5H1.75C1.55109 3.5 1.36032 3.42098 1.21967 3.28033C1.07902 3.13968 1 2.94891 1 2.75ZM4 5.5C4 5.36739 4.05268 5.24021 4.14645 5.14645C4.24021 5.05268 4.36739 5 4.5 5H5.5C5.63261 5 5.75979 5.05268 5.85355 5.14645C5.94732 5.24021 6 5.36739 6 5.5V6.5C6 6.63261 5.94732 6.75979 5.85355 6.85355C5.75979 6.94732 5.63261 7 5.5 7H4.5C4.36739 7 4.24021 6.94732 4.14645 6.85355C4.05268 6.75979 4 6.63261 4 6.5V5.5ZM4.5 9C4.36739 9 4.24021 9.05268 4.14645 9.14645C4.05268 9.24021 4 9.36739 4 9.5V10.5C4 10.6326 4.05268 10.7598 4.14645 10.8536C4.24021 10.9473 4.36739 11 4.5 11H5.5C5.63261 11 5.75979 10.9473 5.85355 10.8536C5.94732 10.7598 6 10.6326 6 10.5V9.5C6 9.36739 5.94732 9.24021 5.85355 9.14645C5.75979 9.05268 5.63261 9 5.5 9H4.5ZM8 5.5C8 5.36739 8.05268 5.24021 8.14645 5.14645C8.24021 5.05268 8.36739 5 8.5 5H9.5C9.63261 5 9.75979 5.05268 9.85355 5.14645C9.94732 5.24021 10 5.36739 10 5.5V6.5C10 6.63261 9.94732 6.75979 9.85355 6.85355C9.75979 6.94732 9.63261 7 9.5 7H8.5C8.36739 7 8.24021 6.94732 8.14645 6.85355C8.05268 6.75979 8 6.63261 8 6.5V5.5ZM8.5 9C8.36739 9 8.24021 9.05268 8.14645 9.14645C8.05268 9.24021 8 9.36739 8 9.5V10.5C8 10.6326 8.05268 10.7598 8.14645 10.8536C8.24021 10.9473 8.36739 11 8.5 11H9.5C9.63261 11 9.75979 10.9473 9.85355 10.8536C9.94732 10.7598 10 10.6326 10 10.5V9.5C10 9.36739 9.94732 9.24021 9.85355 9.14645C9.75979 9.05268 9.63261 9 9.5 9H8.5ZM14.25 6C14.0511 6 13.8603 6.07902 13.7197 6.21967C13.579 6.36032 13.5 6.55109 13.5 6.75V17C13.5 17.2652 13.6054 17.5196 13.7929 17.7071C13.9804 17.8946 14.2348 18 14.5 18H18.25C18.4489 18 18.6397 17.921 18.7803 17.7803C18.921 17.6397 19 17.4489 19 17.25C19 17.0511 18.921 16.8603 18.7803 16.7197C18.6397 16.579 18.4489 16.5 18.25 16.5H18V7.5H18.25C18.4489 7.5 18.6397 7.42098 18.7803 7.28033C18.921 7.13968 19 6.94891 19 6.75C19 6.55109 18.921 6.36032 18.7803 6.21967C18.6397 6.07902 18.4489 6 18.25 6H14.25ZM14.75 9.5C14.75 9.36739 14.8027 9.24021 14.8964 9.14645C14.9902 9.05268 15.1174 9 15.25 9H16.25C16.3826 9 16.5098 9.05268 16.6036 9.14645C16.6973 9.24021 16.75 9.36739 16.75 9.5V10.5C16.75 10.6326 16.6973 10.7598 16.6036 10.8536C16.5098 10.9473 16.3826 11 16.25 11H15.25C15.1174 11 14.9902 10.9473 14.8964 10.8536C14.8027 10.7598 14.75 10.6326 14.75 10.5V9.5ZM15.25 13C15.1174 13 14.9902 13.0527 14.8964 13.1464C14.8027 13.2402 14.75 13.3674 14.75 13.5V14.5C14.75 14.6326 14.8027 14.7598 14.8964 14.8536C14.9902 14.9473 15.1174 15 15.25 15H16.25C16.3826 15 16.5098 14.9473 16.6036 14.8536C16.6973 14.7598 16.75 14.6326 16.75 14.5V13.5C16.75 13.3674 16.6973 13.2402 16.6036 13.1464C16.5098 13.0527 16.3826 13 16.25 13H15.25Z" fill="#18181B"/>
</svg>
