<svg width="938" height="292" viewBox="0 0 938 292" fill="none" xmlns="http://www.w3.org/2000/svg">
<g filter="url(#filter0_dd_49_326)">
<rect x="24.5" y="16.0527" width="889" height="941.229" rx="8.89" fill="white"/>
<rect x="23.3888" y="14.9415" width="891.222" height="943.451" rx="10.0012" stroke="black" stroke-opacity="0.05" stroke-width="2.2225"/>
<path d="M128.264 85.484H122.042C121.928 84.6789 121.696 83.9639 121.346 83.3388C120.995 82.7043 120.546 82.1644 119.996 81.7193C119.447 81.2742 118.812 80.9332 118.093 80.6964C117.382 80.4597 116.61 80.3413 115.777 80.3413C114.271 80.3413 112.959 80.7154 111.842 81.4636C110.724 82.2023 109.858 83.282 109.242 84.7026C108.626 86.1138 108.319 87.828 108.319 89.8453C108.319 91.9194 108.626 93.6621 109.242 95.0732C109.867 96.4844 110.738 97.5499 111.856 98.2697C112.974 98.9894 114.266 99.3493 115.734 99.3493C116.558 99.3493 117.321 99.2404 118.022 99.0226C118.732 98.8048 119.362 98.4875 119.911 98.0708C120.46 97.6446 120.915 97.1284 121.275 96.5223C121.644 95.9161 121.9 95.2248 122.042 94.4482L128.264 94.4766C128.103 95.812 127.701 97.1 127.057 98.3407C126.422 99.5719 125.565 100.675 124.485 101.651C123.415 102.617 122.137 103.384 120.65 103.952C119.172 104.511 117.501 104.79 115.635 104.79C113.04 104.79 110.719 104.203 108.674 103.029C106.638 101.854 105.028 100.154 103.844 97.9287C102.669 95.703 102.082 93.0086 102.082 89.8453C102.082 86.6726 102.679 83.9734 103.872 81.7477C105.065 79.522 106.685 77.8268 108.731 76.6618C110.776 75.4874 113.078 74.9003 115.635 74.9003C117.321 74.9003 118.883 75.137 120.323 75.6106C121.772 76.0841 123.055 76.7755 124.173 77.6847C125.29 78.5844 126.2 79.6878 126.901 80.9948C127.611 82.3017 128.065 83.7981 128.264 85.484ZM142.421 104.819C140.214 104.819 138.306 104.35 136.696 103.412C135.095 102.465 133.859 101.149 132.988 99.463C132.117 97.7677 131.681 95.8025 131.681 93.5674C131.681 91.3133 132.117 89.3433 132.988 87.6575C133.859 85.9622 135.095 84.6458 136.696 83.7082C138.306 82.7611 140.214 82.2875 142.421 82.2875C144.628 82.2875 146.531 82.7611 148.132 83.7082C149.742 84.6458 150.983 85.9622 151.854 87.6575C152.725 89.3433 153.161 91.3133 153.161 93.5674C153.161 95.8025 152.725 97.7677 151.854 99.463C150.983 101.149 149.742 102.465 148.132 103.412C146.531 104.35 144.628 104.819 142.421 104.819ZM142.449 100.131C143.453 100.131 144.291 99.8466 144.964 99.2783C145.636 98.7006 146.143 97.9145 146.484 96.9201C146.834 95.9256 147.01 94.7938 147.01 93.5247C147.01 92.2556 146.834 91.1239 146.484 90.1294C146.143 89.135 145.636 88.3489 144.964 87.7712C144.291 87.1935 143.453 86.9046 142.449 86.9046C141.436 86.9046 140.584 87.1935 139.892 87.7712C139.21 88.3489 138.694 89.135 138.344 90.1294C138.003 91.1239 137.832 92.2556 137.832 93.5247C137.832 94.7938 138.003 95.9256 138.344 96.9201C138.694 97.9145 139.21 98.7006 139.892 99.2783C140.584 99.8466 141.436 100.131 142.449 100.131ZM157.096 104.393V82.5717H162.864V86.4216H163.12C163.574 85.143 164.332 84.1344 165.393 83.3956C166.453 82.6569 167.722 82.2875 169.2 82.2875C170.696 82.2875 171.97 82.6616 173.021 83.4098C174.073 84.1486 174.773 85.1525 175.124 86.4216H175.351C175.796 85.1714 176.601 84.1722 177.766 83.424C178.941 82.6664 180.328 82.2875 181.929 82.2875C183.965 82.2875 185.618 82.9363 186.887 84.2338C188.165 85.5218 188.805 87.3497 188.805 89.7174V104.393H182.767V90.9108C182.767 89.6985 182.445 88.7893 181.801 88.1832C181.157 87.577 180.352 87.274 179.386 87.274C178.287 87.274 177.43 87.6244 176.814 88.3252C176.199 89.0166 175.891 89.9305 175.891 91.067V104.393H170.024V90.7829C170.024 89.7127 169.716 88.8603 169.1 88.2258C168.494 87.5912 167.694 87.274 166.7 87.274C166.027 87.274 165.421 87.4444 164.881 87.7854C164.351 88.1169 163.929 88.5857 163.617 89.1918C163.304 89.7885 163.148 90.4893 163.148 91.2943V104.393H157.096ZM193.585 112.575V82.5717H199.552V86.2369H199.822C200.087 85.6497 200.47 85.053 200.972 84.4469C201.484 83.8313 202.147 83.3199 202.961 82.9126C203.785 82.4959 204.808 82.2875 206.03 82.2875C207.621 82.2875 209.089 82.7043 210.434 83.5377C211.779 84.3617 212.853 85.6071 213.659 87.274C214.464 88.9314 214.866 91.0102 214.866 93.5105C214.866 95.9446 214.473 97.9997 213.687 99.6761C212.91 101.343 211.85 102.607 210.505 103.469C209.169 104.322 207.673 104.748 206.016 104.748C204.841 104.748 203.842 104.554 203.018 104.165C202.203 103.777 201.536 103.289 201.015 102.702C200.494 102.105 200.096 101.504 199.822 100.898H199.637V112.575H193.585ZM199.509 93.4821C199.509 94.7796 199.689 95.9114 200.049 96.8774C200.409 97.8435 200.93 98.5964 201.612 99.1362C202.293 99.6666 203.122 99.9318 204.098 99.9318C205.083 99.9318 205.916 99.6619 206.598 99.122C207.28 98.5727 207.796 97.8151 208.146 96.849C208.506 95.8735 208.686 94.7512 208.686 93.4821C208.686 92.2225 208.511 91.1144 208.161 90.1578C207.81 89.2013 207.294 88.4531 206.612 87.9132C205.93 87.3734 205.092 87.1035 204.098 87.1035C203.113 87.1035 202.279 87.3639 201.597 87.8848C200.925 88.4057 200.409 89.1445 200.049 90.101C199.689 91.0576 199.509 92.1846 199.509 93.4821ZM225.123 104.805C223.731 104.805 222.49 104.563 221.401 104.08C220.312 103.588 219.45 102.863 218.815 101.906C218.19 100.94 217.878 99.7376 217.878 98.2981C217.878 97.0858 218.1 96.0677 218.545 95.2437C218.991 94.4197 219.597 93.7568 220.364 93.2548C221.131 92.7529 222.002 92.374 222.978 92.1183C223.963 91.8626 224.995 91.6827 226.075 91.5785C227.344 91.4459 228.367 91.3228 229.143 91.2091C229.92 91.086 230.484 90.906 230.834 90.6693C231.184 90.4325 231.36 90.0821 231.36 89.618V89.5328C231.36 88.633 231.075 87.9369 230.507 87.4444C229.948 86.9519 229.153 86.7057 228.121 86.7057C227.031 86.7057 226.165 86.9472 225.521 87.4302C224.877 87.9038 224.451 88.5004 224.242 89.2202L218.645 88.7656C218.929 87.4397 219.488 86.2937 220.321 85.3277C221.155 84.3522 222.23 83.604 223.546 83.0831C224.872 82.5527 226.406 82.2875 228.149 82.2875C229.361 82.2875 230.521 82.4296 231.63 82.7137C232.747 82.9979 233.737 83.4383 234.599 84.0349C235.47 84.6316 236.157 85.3987 236.659 86.3363C237.16 87.2645 237.411 88.3773 237.411 89.6748V104.393H231.672V101.367H231.502C231.151 102.049 230.682 102.65 230.095 103.171C229.508 103.682 228.802 104.085 227.978 104.378C227.155 104.662 226.203 104.805 225.123 104.805ZM226.856 100.628C227.746 100.628 228.533 100.453 229.214 100.102C229.896 99.7424 230.431 99.2594 230.82 98.6532C231.208 98.0471 231.402 97.3604 231.402 96.5933V94.2777C231.213 94.4008 230.952 94.5144 230.621 94.6186C230.299 94.7133 229.934 94.8033 229.527 94.8885C229.12 94.9643 228.712 95.0353 228.305 95.1016C227.898 95.1585 227.529 95.2106 227.197 95.2579C226.487 95.3621 225.866 95.5278 225.336 95.7551C224.806 95.9824 224.394 96.2902 224.1 96.6785C223.807 97.0574 223.66 97.5309 223.66 98.0992C223.66 98.9231 223.958 99.553 224.555 99.9886C225.161 100.415 225.928 100.628 226.856 100.628ZM248.159 91.7774V104.393H242.107V82.5717H247.874V86.4216H248.13C248.613 85.1525 249.423 84.1486 250.559 83.4098C251.696 82.6616 253.074 82.2875 254.693 82.2875C256.209 82.2875 257.53 82.619 258.657 83.282C259.784 83.9449 260.66 84.892 261.285 86.1232C261.91 87.345 262.223 88.8035 262.223 90.4988V104.393H256.171V91.5785C256.18 90.2431 255.839 89.2013 255.148 88.4531C254.457 87.6954 253.505 87.3166 252.293 87.3166C251.478 87.3166 250.758 87.4918 250.133 87.8422C249.518 88.1926 249.035 88.7041 248.684 89.3765C248.343 90.0395 248.168 90.8397 248.159 91.7774ZM269.948 112.575C269.18 112.575 268.461 112.514 267.788 112.391C267.125 112.277 266.576 112.13 266.14 111.95L267.504 107.433C268.214 107.651 268.854 107.769 269.422 107.788C270 107.807 270.497 107.674 270.914 107.39C271.34 107.106 271.685 106.623 271.951 105.941L272.306 105.018L264.478 82.5717H270.843L275.36 98.5964H275.587L280.148 82.5717H286.555L278.074 106.751C277.666 107.925 277.112 108.948 276.411 109.819C275.72 110.7 274.844 111.377 273.783 111.851C272.722 112.334 271.444 112.575 269.948 112.575Z" fill="#18181B"/>
<path d="M118.787 153.509H114.656C114.58 152.974 114.426 152.499 114.194 152.084C113.961 151.663 113.662 151.305 113.298 151.009C112.933 150.714 112.512 150.487 112.034 150.33C111.562 150.173 111.05 150.094 110.496 150.094C109.497 150.094 108.626 150.343 107.884 150.839C107.142 151.33 106.566 152.047 106.158 152.99C105.749 153.927 105.545 155.065 105.545 156.404C105.545 157.781 105.749 158.938 106.158 159.875C106.573 160.812 107.151 161.519 107.893 161.997C108.635 162.475 109.494 162.714 110.468 162.714C111.015 162.714 111.521 162.642 111.987 162.497C112.458 162.353 112.876 162.142 113.241 161.865C113.606 161.582 113.908 161.24 114.147 160.837C114.392 160.435 114.562 159.976 114.656 159.46L118.787 159.479C118.68 160.366 118.413 161.221 117.985 162.045C117.564 162.862 116.995 163.594 116.278 164.242C115.568 164.884 114.719 165.393 113.732 165.77C112.751 166.141 111.641 166.327 110.402 166.327C108.679 166.327 107.139 165.937 105.78 165.157C104.429 164.377 103.36 163.249 102.574 161.771C101.794 160.293 101.404 158.504 101.404 156.404C101.404 154.298 101.8 152.506 102.593 151.028C103.385 149.55 104.46 148.425 105.818 147.651C107.176 146.872 108.704 146.482 110.402 146.482C111.521 146.482 112.559 146.639 113.515 146.953C114.477 147.268 115.329 147.727 116.071 148.331C116.813 148.928 117.416 149.66 117.882 150.528C118.353 151.396 118.655 152.389 118.787 153.509ZM128.186 166.345C126.721 166.345 125.454 166.034 124.385 165.412C123.322 164.783 122.502 163.909 121.923 162.79C121.345 161.664 121.055 160.359 121.055 158.875C121.055 157.379 121.345 156.071 121.923 154.952C122.502 153.826 123.322 152.952 124.385 152.33C125.454 151.701 126.721 151.386 128.186 151.386C129.651 151.386 130.915 151.701 131.978 152.33C133.047 152.952 133.87 153.826 134.449 154.952C135.027 156.071 135.317 157.379 135.317 158.875C135.317 160.359 135.027 161.664 134.449 162.79C133.87 163.909 133.047 164.783 131.978 165.412C130.915 166.034 129.651 166.345 128.186 166.345ZM128.205 163.233C128.871 163.233 129.428 163.044 129.874 162.667C130.321 162.283 130.657 161.762 130.884 161.101C131.116 160.441 131.232 159.69 131.232 158.847C131.232 158.005 131.116 157.253 130.884 156.593C130.657 155.933 130.321 155.411 129.874 155.027C129.428 154.644 128.871 154.452 128.205 154.452C127.532 154.452 126.966 154.644 126.507 155.027C126.054 155.411 125.712 155.933 125.479 156.593C125.253 157.253 125.139 158.005 125.139 158.847C125.139 159.69 125.253 160.441 125.479 161.101C125.712 161.762 126.054 162.283 126.507 162.667C126.966 163.044 127.532 163.233 128.205 163.233ZM137.929 166.062V151.575H141.759V154.131H141.928C142.23 153.282 142.733 152.613 143.437 152.122C144.142 151.632 144.984 151.386 145.965 151.386C146.959 151.386 147.804 151.635 148.502 152.132C149.2 152.622 149.666 153.289 149.898 154.131H150.049C150.345 153.301 150.879 152.638 151.653 152.141C152.432 151.638 153.353 151.386 154.416 151.386C155.768 151.386 156.865 151.817 157.708 152.679C158.557 153.534 158.981 154.747 158.981 156.319V166.062H154.973V157.112C154.973 156.307 154.759 155.703 154.331 155.301C153.904 154.898 153.369 154.697 152.728 154.697C151.998 154.697 151.429 154.93 151.021 155.395C150.612 155.854 150.408 156.461 150.408 157.215V166.062H146.512V157.027C146.512 156.316 146.308 155.75 145.899 155.329C145.497 154.908 144.965 154.697 144.305 154.697C143.859 154.697 143.456 154.81 143.098 155.037C142.746 155.257 142.466 155.568 142.258 155.97C142.051 156.366 141.947 156.832 141.947 157.366V166.062H137.929ZM162.155 171.495V151.575H166.116V154.009H166.296C166.472 153.619 166.726 153.223 167.06 152.82C167.399 152.411 167.839 152.072 168.38 151.801C168.927 151.525 169.606 151.386 170.417 151.386C171.474 151.386 172.448 151.663 173.341 152.216C174.234 152.764 174.948 153.59 175.482 154.697C176.017 155.797 176.284 157.178 176.284 158.838C176.284 160.454 176.023 161.818 175.501 162.931C174.986 164.038 174.281 164.877 173.388 165.449C172.502 166.015 171.508 166.298 170.408 166.298C169.628 166.298 168.965 166.169 168.418 165.912C167.877 165.654 167.434 165.33 167.088 164.94C166.742 164.544 166.478 164.145 166.296 163.742H166.173V171.495H162.155ZM166.088 158.819C166.088 159.68 166.208 160.432 166.447 161.073C166.685 161.714 167.031 162.214 167.484 162.573C167.937 162.925 168.487 163.101 169.135 163.101C169.789 163.101 170.342 162.922 170.795 162.563C171.247 162.199 171.59 161.696 171.823 161.054C172.062 160.406 172.181 159.661 172.181 158.819C172.181 157.982 172.065 157.247 171.832 156.612C171.599 155.977 171.257 155.48 170.804 155.121C170.351 154.763 169.795 154.584 169.135 154.584C168.481 154.584 167.927 154.757 167.475 155.103C167.028 155.448 166.685 155.939 166.447 156.574C166.208 157.209 166.088 157.957 166.088 158.819ZM183.094 166.336C182.17 166.336 181.346 166.176 180.623 165.855C179.9 165.528 179.327 165.047 178.906 164.412C178.491 163.771 178.284 162.972 178.284 162.016C178.284 161.211 178.431 160.535 178.727 159.988C179.022 159.441 179.425 159.001 179.934 158.668C180.443 158.335 181.022 158.083 181.67 157.913C182.324 157.744 183.009 157.624 183.726 157.555C184.568 157.467 185.247 157.385 185.763 157.31C186.279 157.228 186.653 157.108 186.885 156.951C187.118 156.794 187.234 156.561 187.234 156.253V156.197C187.234 155.599 187.046 155.137 186.669 154.81C186.298 154.483 185.769 154.32 185.084 154.32C184.361 154.32 183.786 154.48 183.358 154.801C182.93 155.115 182.647 155.511 182.509 155.989L178.793 155.687C178.982 154.807 179.353 154.046 179.906 153.405C180.459 152.757 181.173 152.26 182.047 151.915C182.927 151.563 183.946 151.386 185.103 151.386C185.908 151.386 186.678 151.481 187.414 151.669C188.156 151.858 188.813 152.15 189.385 152.547C189.963 152.943 190.419 153.452 190.753 154.075C191.086 154.691 191.252 155.43 191.252 156.291V166.062H187.442V164.054H187.329C187.096 164.506 186.785 164.906 186.395 165.251C186.005 165.591 185.537 165.858 184.99 166.053C184.443 166.242 183.811 166.336 183.094 166.336ZM184.245 163.563C184.836 163.563 185.357 163.447 185.81 163.214C186.263 162.975 186.618 162.654 186.876 162.252C187.134 161.85 187.263 161.394 187.263 160.884V159.347C187.137 159.429 186.964 159.504 186.744 159.573C186.53 159.636 186.288 159.696 186.018 159.753C185.747 159.803 185.477 159.85 185.207 159.894C184.936 159.932 184.691 159.966 184.471 159.998C183.999 160.067 183.587 160.177 183.235 160.328C182.883 160.479 182.61 160.683 182.415 160.941C182.22 161.192 182.122 161.507 182.122 161.884C182.122 162.431 182.32 162.849 182.717 163.139C183.119 163.422 183.628 163.563 184.245 163.563ZM198.388 157.687V166.062H194.37V151.575H198.199V154.131H198.369C198.689 153.289 199.227 152.622 199.982 152.132C200.736 151.635 201.651 151.386 202.726 151.386C203.732 151.386 204.61 151.607 205.358 152.047C206.106 152.487 206.688 153.116 207.103 153.933C207.518 154.744 207.725 155.713 207.725 156.838V166.062H203.707V157.555C203.714 156.668 203.487 155.977 203.028 155.48C202.569 154.977 201.937 154.725 201.132 154.725C200.592 154.725 200.114 154.842 199.699 155.074C199.29 155.307 198.969 155.647 198.737 156.093C198.51 156.533 198.394 157.064 198.388 157.687ZM212.854 171.495C212.345 171.495 211.867 171.454 211.42 171.373C210.98 171.297 210.615 171.2 210.326 171.08L211.232 168.081C211.703 168.226 212.128 168.304 212.505 168.317C212.888 168.329 213.219 168.241 213.495 168.053C213.778 167.864 214.008 167.543 214.184 167.091L214.42 166.478L209.223 151.575H213.448L216.447 162.214H216.598L219.626 151.575H223.88L218.249 167.628C217.979 168.408 217.611 169.087 217.145 169.665C216.686 170.25 216.105 170.7 215.4 171.014C214.696 171.335 213.847 171.495 212.854 171.495Z" fill="#18181B"/>
<path d="M117.948 192.782H115.609C115.47 192.11 115.228 191.518 114.882 191.009C114.543 190.5 114.128 190.072 113.637 189.726C113.153 189.374 112.615 189.11 112.024 188.934C111.433 188.758 110.817 188.67 110.176 188.67C109.006 188.67 107.947 188.966 106.997 189.557C106.054 190.148 105.303 191.019 104.743 192.169C104.19 193.32 103.913 194.732 103.913 196.404C103.913 198.077 104.19 199.488 104.743 200.639C105.303 201.79 106.054 202.661 106.997 203.252C107.947 203.843 109.006 204.138 110.176 204.138C110.817 204.138 111.433 204.05 112.024 203.874C112.615 203.698 113.153 203.437 113.637 203.091C114.128 202.739 114.543 202.309 114.882 201.799C115.228 201.284 115.47 200.693 115.609 200.026H117.948C117.772 201.013 117.451 201.897 116.986 202.676C116.52 203.456 115.942 204.12 115.25 204.667C114.558 205.207 113.782 205.619 112.92 205.902C112.065 206.185 111.15 206.327 110.176 206.327C108.528 206.327 107.063 205.924 105.78 205.119C104.498 204.314 103.489 203.17 102.753 201.686C102.017 200.202 101.649 198.442 101.649 196.404C101.649 194.367 102.017 192.606 102.753 191.122C103.489 189.638 104.498 188.494 105.78 187.689C107.063 186.884 108.528 186.482 110.176 186.482C111.15 186.482 112.065 186.623 112.92 186.906C113.782 187.189 114.558 187.604 115.25 188.151C115.942 188.692 116.52 189.352 116.986 190.132C117.451 190.905 117.772 191.789 117.948 192.782ZM127.311 206.364C126.003 206.364 124.856 206.053 123.869 205.431C122.888 204.808 122.12 203.937 121.567 202.818C121.02 201.699 120.747 200.391 120.747 198.894C120.747 197.385 121.02 196.068 121.567 194.942C122.12 193.817 122.888 192.943 123.869 192.32C124.856 191.698 126.003 191.386 127.311 191.386C128.619 191.386 129.763 191.698 130.744 192.32C131.732 192.943 132.499 193.817 133.046 194.942C133.599 196.068 133.876 197.385 133.876 198.894C133.876 200.391 133.599 201.699 133.046 202.818C132.499 203.937 131.732 204.808 130.744 205.431C129.763 206.053 128.619 206.364 127.311 206.364ZM127.311 204.365C128.305 204.365 129.122 204.11 129.763 203.601C130.405 203.091 130.88 202.422 131.188 201.592C131.496 200.762 131.65 199.863 131.65 198.894C131.65 197.926 131.496 197.024 131.188 196.187C130.88 195.351 130.405 194.675 129.763 194.159C129.122 193.644 128.305 193.386 127.311 193.386C126.318 193.386 125.5 193.644 124.859 194.159C124.218 194.675 123.743 195.351 123.435 196.187C123.127 197.024 122.973 197.926 122.973 198.894C122.973 199.863 123.127 200.762 123.435 201.592C123.743 202.422 124.218 203.091 124.859 203.601C125.5 204.11 126.318 204.365 127.311 204.365ZM137.274 206.062V191.575H139.424V193.839H139.613C139.915 193.065 140.402 192.465 141.075 192.037C141.747 191.603 142.555 191.386 143.499 191.386C144.454 191.386 145.25 191.603 145.885 192.037C146.526 192.465 147.026 193.065 147.385 193.839H147.536C147.907 193.09 148.463 192.496 149.205 192.056C149.947 191.61 150.837 191.386 151.874 191.386C153.17 191.386 154.229 191.792 155.053 192.603C155.876 193.408 156.288 194.662 156.288 196.366V206.062H154.062V196.366C154.062 195.298 153.77 194.534 153.185 194.075C152.6 193.616 151.912 193.386 151.12 193.386C150.101 193.386 149.312 193.694 148.752 194.31C148.193 194.92 147.913 195.694 147.913 196.631V206.062H145.649V196.14C145.649 195.316 145.382 194.653 144.847 194.15C144.313 193.641 143.624 193.386 142.782 193.386C142.203 193.386 141.663 193.54 141.16 193.848C140.663 194.156 140.26 194.584 139.952 195.131C139.65 195.672 139.5 196.297 139.5 197.008V206.062H137.274ZM160.358 211.495V191.575H162.509V193.876H162.773C162.936 193.625 163.163 193.304 163.452 192.914C163.747 192.518 164.169 192.166 164.716 191.858C165.269 191.544 166.017 191.386 166.961 191.386C168.18 191.386 169.256 191.691 170.186 192.301C171.117 192.911 171.843 193.776 172.365 194.895C172.887 196.014 173.148 197.335 173.148 198.857C173.148 200.391 172.887 201.721 172.365 202.846C171.843 203.965 171.12 204.833 170.196 205.449C169.271 206.059 168.206 206.364 166.998 206.364C166.068 206.364 165.323 206.21 164.763 205.902C164.203 205.588 163.773 205.232 163.471 204.836C163.169 204.434 162.936 204.101 162.773 203.837H162.584V211.495H160.358ZM162.546 198.819C162.546 199.913 162.707 200.878 163.027 201.714C163.348 202.544 163.817 203.195 164.433 203.667C165.049 204.132 165.804 204.365 166.696 204.365C167.627 204.365 168.404 204.12 169.026 203.629C169.655 203.132 170.127 202.466 170.441 201.63C170.762 200.787 170.922 199.85 170.922 198.819C170.922 197.8 170.765 196.882 170.45 196.065C170.142 195.241 169.674 194.59 169.045 194.112C168.423 193.628 167.64 193.386 166.696 193.386C165.791 193.386 165.03 193.616 164.414 194.075C163.798 194.527 163.332 195.162 163.018 195.98C162.704 196.791 162.546 197.737 162.546 198.819ZM180.807 206.402C179.889 206.402 179.055 206.229 178.307 205.883C177.559 205.531 176.965 205.025 176.525 204.365C176.084 203.698 175.864 202.893 175.864 201.95C175.864 201.12 176.028 200.447 176.355 199.932C176.682 199.41 177.119 199.001 177.666 198.706C178.213 198.41 178.816 198.19 179.477 198.045C180.143 197.894 180.813 197.775 181.486 197.687C182.366 197.574 183.08 197.489 183.627 197.432C184.18 197.369 184.583 197.266 184.834 197.121C185.092 196.976 185.221 196.725 185.221 196.366V196.291C185.221 195.36 184.966 194.637 184.457 194.122C183.954 193.606 183.19 193.348 182.165 193.348C181.102 193.348 180.269 193.581 179.665 194.046C179.062 194.512 178.637 195.008 178.392 195.536L176.279 194.782C176.657 193.902 177.16 193.216 177.788 192.726C178.423 192.229 179.115 191.883 179.863 191.688C180.618 191.487 181.36 191.386 182.089 191.386C182.555 191.386 183.089 191.443 183.693 191.556C184.303 191.663 184.891 191.886 185.457 192.226C186.029 192.565 186.503 193.078 186.881 193.763C187.258 194.449 187.447 195.367 187.447 196.517V206.062H185.221V204.101H185.108C184.957 204.415 184.705 204.751 184.353 205.11C184.001 205.468 183.532 205.773 182.948 206.025C182.363 206.276 181.649 206.402 180.807 206.402ZM181.146 204.402C182.026 204.402 182.768 204.23 183.372 203.884C183.982 203.538 184.441 203.091 184.749 202.544C185.064 201.997 185.221 201.422 185.221 200.818V198.781C185.126 198.894 184.919 198.998 184.598 199.092C184.284 199.18 183.919 199.259 183.504 199.328C183.095 199.391 182.696 199.448 182.306 199.498C181.923 199.542 181.611 199.58 181.373 199.611C180.794 199.687 180.253 199.809 179.75 199.979C179.253 200.142 178.851 200.391 178.543 200.724C178.241 201.051 178.09 201.497 178.09 202.063C178.09 202.837 178.376 203.422 178.949 203.818C179.527 204.208 180.26 204.402 181.146 204.402ZM193.735 197.347V206.062H191.509V191.575H193.66V193.839H193.849C194.188 193.103 194.704 192.512 195.395 192.066C196.087 191.613 196.98 191.386 198.074 191.386C199.055 191.386 199.913 191.588 200.649 191.99C201.385 192.386 201.957 192.99 202.366 193.801C202.774 194.606 202.979 195.625 202.979 196.857V206.062H200.753V197.008C200.753 195.87 200.457 194.983 199.866 194.348C199.275 193.707 198.464 193.386 197.433 193.386C196.722 193.386 196.087 193.54 195.527 193.848C194.974 194.156 194.537 194.606 194.216 195.197C193.896 195.788 193.735 196.505 193.735 197.347ZM207.961 211.495C207.584 211.495 207.247 211.464 206.952 211.401C206.656 211.344 206.452 211.288 206.339 211.231L206.905 209.269C207.445 209.408 207.923 209.458 208.338 209.42C208.753 209.383 209.121 209.197 209.442 208.864C209.769 208.537 210.068 208.005 210.338 207.27L210.753 206.138L205.396 191.575H207.81L211.809 203.12H211.96L215.959 191.575H218.374L212.224 208.175C211.948 208.924 211.605 209.543 211.196 210.033C210.787 210.53 210.313 210.898 209.772 211.137C209.238 211.376 208.634 211.495 207.961 211.495Z" fill="#27272A"/>
<rect x="764.592" y="67.1701" width="40.005" height="40.005" rx="20.0025" fill="#FFA800" stroke="white" stroke-width="4.445"/>
<rect x="782.372" y="67.1701" width="40.005" height="40.005" rx="20.0025" fill="#FFA800" stroke="white" stroke-width="4.445"/>
<rect x="800.152" y="67.1701" width="40.005" height="40.005" rx="20.0025" fill="#FFA800" stroke="white" stroke-width="4.445"/>
</g>
<defs>
<filter id="filter0_dd_49_326" x="0.0525284" y="0.495079" width="937.895" height="990.124" filterUnits="userSpaceOnUse" color-interpolation-filters="sRGB">
<feFlood flood-opacity="0" result="BackgroundImageFix"/>
<feColorMatrix in="SourceAlpha" type="matrix" values="0 0 0 0 0 0 0 0 0 0 0 0 0 0 0 0 0 0 127 0" result="hardAlpha"/>
<feMorphology radius="5.55625" operator="erode" in="SourceAlpha" result="effect1_dropShadow_49_326"/>
<feOffset dy="4.445"/>
<feGaussianBlur stdDeviation="5.55625"/>
<feColorMatrix type="matrix" values="0 0 0 0 0 0 0 0 0 0 0 0 0 0 0 0 0 0 0.04 0"/>
<feBlend mode="normal" in2="BackgroundImageFix" result="effect1_dropShadow_49_326"/>
<feColorMatrix in="SourceAlpha" type="matrix" values="0 0 0 0 0 0 0 0 0 0 0 0 0 0 0 0 0 0 127 0" result="hardAlpha"/>
<feMorphology radius="5.55625" operator="erode" in="SourceAlpha" result="effect2_dropShadow_49_326"/>
<feOffset dy="8.89"/>
<feGaussianBlur stdDeviation="13.8906"/>
<feColorMatrix type="matrix" values="0 0 0 0 0 0 0 0 0 0 0 0 0 0 0 0 0 0 0.1 0"/>
<feBlend mode="normal" in2="effect1_dropShadow_49_326" result="effect2_dropShadow_49_326"/>
<feBlend mode="normal" in="SourceGraphic" in2="effect2_dropShadow_49_326" result="shape"/>
</filter>
</defs>
</svg>
