<svg width="21" height="20" viewBox="0 0 21 20" fill="none" xmlns="http://www.w3.org/2000/svg">
<path d="M10.5002 8C11.2958 8 12.0589 7.68393 12.6215 7.12132C13.1841 6.55871 13.5002 5.79565 13.5002 5C13.5002 4.20435 13.1841 3.44129 12.6215 2.87868C12.0589 2.31607 11.2958 2 10.5002 2C9.70455 2 8.94149 2.31607 8.37888 2.87868C7.81627 3.44129 7.5002 4.20435 7.5002 5C7.5002 5.79565 7.81627 6.55871 8.37888 7.12132C8.94149 7.68393 9.70455 8 10.5002 8ZM3.9652 14.493C3.87236 14.7411 3.86212 15.0126 3.936 15.267C4.00987 15.5214 4.16391 15.7452 4.3752 15.905C6.12654 17.266 8.28218 18.0034 10.5002 18C12.8102 18 14.9382 17.216 16.6312 15.9C17.0612 15.567 17.2352 14.997 17.0392 14.49C16.5314 13.168 15.6348 12.0311 14.4675 11.2292C13.3003 10.4274 11.9173 9.99829 10.5012 9.99861C9.08503 9.99894 7.70227 10.4287 6.53539 11.231C5.36851 12.0334 4.47236 13.1708 3.9652 14.493Z" fill="#18181B"/>
</svg>
