<svg width="21" height="20" viewBox="0 0 21 20" fill="none" xmlns="http://www.w3.org/2000/svg">
<path fill-rule="evenodd" clip-rule="evenodd" d="M13.0771 4.87795C13.1026 4.7828 13.1466 4.69361 13.2066 4.61547C13.2666 4.53734 13.3414 4.47179 13.4268 4.42257C13.5121 4.37335 13.6063 4.34143 13.704 4.32863C13.8017 4.31582 13.9009 4.32239 13.9961 4.34795L18.7761 5.62895C18.8713 5.65437 18.9606 5.69831 19.0389 5.75827C19.1171 5.81823 19.1828 5.89302 19.2321 5.97838C19.2814 6.06373 19.3134 6.15797 19.3263 6.2557C19.3391 6.35343 19.3326 6.45274 19.3071 6.54795L18.0261 11.328C17.9721 11.5172 17.846 11.6776 17.6749 11.7747C17.5038 11.8717 17.3013 11.8977 17.1113 11.8469C16.9212 11.7962 16.7587 11.6727 16.6587 11.5033C16.5588 11.3338 16.5295 11.1319 16.5771 10.941L17.3871 7.91895C15.1961 9.26551 13.2946 11.0341 11.7931 13.122C11.7296 13.2102 11.6478 13.2836 11.5531 13.3371C11.4585 13.3906 11.3534 13.4229 11.2451 13.4318C11.1367 13.4406 11.0278 13.4258 10.9257 13.3884C10.8237 13.3509 10.731 13.2918 10.6541 13.215L7.50006 10.06L2.78006 14.78C2.63854 14.9165 2.44906 14.992 2.25241 14.9902C2.05576 14.9884 1.86769 14.9094 1.7287 14.7703C1.58971 14.6312 1.51092 14.4431 1.5093 14.2464C1.50769 14.0498 1.58337 13.8603 1.72006 13.719L6.97006 8.46895C7.11069 8.3285 7.30131 8.24961 7.50006 8.24961C7.69881 8.24961 7.88943 8.3285 8.03006 8.46895L11.1041 11.542C12.6438 9.58104 14.5217 7.91112 16.6491 6.61095L13.6071 5.79595C13.5119 5.77043 13.4227 5.72641 13.3446 5.66641C13.2664 5.6064 13.2009 5.53159 13.1517 5.44625C13.1025 5.36091 13.0705 5.26671 13.0577 5.16903C13.0449 5.07134 13.0515 4.9731 13.0771 4.87795Z" fill="#18181B"/>
</svg>
