<svg width="200" height="200" viewBox="0 0 200 200" fill="none" xmlns="http://www.w3.org/2000/svg">
<g clip-path="url(#clip0_295_3644)">
<g clip-path="url(#clip1_295_3644)">
<g clip-path="url(#clip2_295_3644)">
<rect width="187.082" height="187.082" transform="translate(0 13.0502) rotate(-4)" fill="#18181B"/>
<rect x="125.881" y="110.207" width="71.0912" height="16.8374" transform="rotate(-4 125.881 110.207)" fill="#F4F4F5"/>
<rect x="4.76331" y="81.1689" width="68.285" height="16.8374" transform="rotate(-4 4.76331 81.1689)" fill="#F4F4F5"/>
<path d="M105.25 154.832C97.6601 155.363 90.6944 154.997 84.3529 153.735C78.0114 152.473 71.6768 149.955 65.3491 146.181L63.6086 121.29L79.5899 120.173L82.8056 134.657C85.0523 136.3 88.0774 137.557 91.8807 138.428C95.6808 139.252 99.773 139.511 104.157 139.204C107.929 138.94 111.051 138.201 113.524 136.986C118.609 134.498 120.965 130.591 120.592 125.264C120.417 122.765 119.675 120.615 118.364 118.811C115.797 115.296 109.842 112.443 100.499 110.254C91.9829 108.386 85.0569 106.218 79.7205 103.749C74.1485 101.296 69.8804 98.1834 66.9164 94.4113C63.9962 90.5888 62.34 85.8726 61.9477 80.2626C61.5587 74.6998 62.7699 69.6646 65.5813 65.157C68.3489 60.6999 72.3813 57.0544 77.6784 54.2206C82.9755 51.3868 89.2036 49.6722 96.3627 49.0769L97.4234 49.0027C104.966 48.4752 111.703 48.9516 117.633 50.4319C123.806 51.9899 129.255 54.3802 133.981 57.6027L135.603 80.7969L120.117 81.8798L116.44 67.9249C114.57 66.9188 112.073 66.0985 108.949 65.4642C105.873 64.8266 102.402 64.643 98.536 64.9133C95.236 65.1441 92.3714 65.8418 89.942 67.0065C87.4655 68.1745 85.5625 69.7525 84.233 71.7404C82.9034 73.7283 82.3326 76.0658 82.5205 78.7529C82.682 81.0629 83.4585 83.022 84.8501 84.6301C87.4314 87.671 93.9304 90.509 104.347 93.144C115.93 95.5081 124.825 99.0786 131.033 103.856C137.289 108.629 140.711 115.235 141.301 123.674C141.713 129.567 140.487 134.721 137.622 139.138C134.763 143.649 130.563 147.259 125.02 149.967C119.477 152.676 112.887 154.298 105.25 154.832Z" fill="#F4F4F5"/>
</g>
</g>
</g>
<defs>
<clipPath id="clip0_295_3644">
<rect width="200" height="200" fill="white"/>
</clipPath>
<clipPath id="clip1_295_3644">
<rect y="13.0502" width="187.082" height="187.082" rx="29.9332" transform="rotate(-4 0 13.0502)" fill="white"/>
</clipPath>
<clipPath id="clip2_295_3644">
<rect width="187.082" height="187.082" fill="white" transform="translate(0 13.0502) rotate(-4)"/>
</clipPath>
</defs>
</svg>
