<svg width="200" height="200" viewBox="0 0 200 200" fill="none" xmlns="http://www.w3.org/2000/svg">
<g clip-path="url(#clip0_249_1095)">
<g clip-path="url(#clip1_249_1095)">
<rect width="200" height="200" fill="#18181B"/>
<rect x="127" y="113" width="76" height="18" fill="#F4F4F5"/>
<rect y="73" width="73" height="18" fill="#F4F4F5"/>
<path d="M101.67 158.591C93.5364 158.591 86.1351 157.682 79.4664 155.863C72.7976 154.045 66.2299 150.887 59.7632 146.391V119.716H76.8898L79.239 135.402C81.5125 137.322 84.6448 138.888 88.6359 140.101C92.627 141.263 96.9718 141.844 101.67 141.844C105.712 141.844 109.097 141.288 111.825 140.177C117.433 137.903 120.237 133.912 120.237 128.203C120.237 125.526 119.605 123.176 118.342 121.155C115.867 117.215 109.728 113.729 99.9273 110.698C90.9851 108.071 83.7606 105.241 78.2539 102.21C72.4945 99.1789 68.175 95.5414 65.2953 91.2977C62.4661 87.0034 61.0515 81.8503 61.0515 75.8383C61.0515 69.8768 62.7187 64.5974 66.0531 60C69.3369 55.4531 73.9091 51.8661 79.7695 49.2391C85.6299 46.612 92.3997 45.2479 100.079 45.1469H101.216C109.299 45.1469 116.448 46.1573 122.662 48.1781C129.128 50.3 134.761 53.2555 139.561 57.0445V81.9008H122.965L120.085 66.7445C118.165 65.532 115.564 64.4711 112.28 63.5617C109.046 62.6523 105.358 62.1976 101.216 62.1976C97.6791 62.1976 94.5721 62.7281 91.8945 63.7891C89.1664 64.85 87.0192 66.3909 85.4531 68.4117C83.8869 70.4325 83.1039 72.8828 83.1039 75.7625C83.1039 78.238 83.7859 80.3852 85.15 82.2039C87.676 85.6393 94.3953 89.1505 105.308 92.7375C117.483 96.1224 126.703 100.593 132.968 106.151C139.283 111.708 142.441 119.008 142.441 128.052C142.441 134.367 140.748 139.772 137.363 144.269C133.978 148.866 129.229 152.403 123.116 154.878C117.003 157.354 109.855 158.591 101.67 158.591Z" fill="#F4F4F5"/>
</g>
</g>
<defs>
<clipPath id="clip0_249_1095">
<rect width="200" height="200" rx="32" fill="white"/>
</clipPath>
<clipPath id="clip1_249_1095">
<rect width="200" height="200" fill="white"/>
</clipPath>
</defs>
</svg>
