<svg width="200" height="200" viewBox="0 0 200 200" fill="none" xmlns="http://www.w3.org/2000/svg">
<g clip-path="url(#clip0_173_26494)">
<g clip-path="url(#clip1_173_26494)">
<rect width="200" height="200" rx="16.6667" fill="#18181B"/>
<rect x="131" y="109" width="69.55" height="20" fill="#FAFAFA"/>
<rect y="61" width="64" height="20" fill="#FAFAFA"/>
<path d="M118.661 71.2834C118.235 66.9865 116.406 63.6484 113.175 61.2692C109.943 58.8899 105.558 57.7003 100.018 57.7003C96.2536 57.7003 93.0753 58.233 90.483 59.2983C87.8906 60.3281 85.902 61.7663 84.517 63.6129C83.1676 65.4595 82.4929 67.5547 82.4929 69.8984C82.4219 71.8516 82.8303 73.5561 83.718 75.0121C84.6413 76.468 85.902 77.7287 87.5 78.794C89.098 79.8239 90.9446 80.7294 93.0398 81.5107C95.1349 82.2564 97.3722 82.8956 99.7514 83.4283L109.553 85.772C114.311 86.8374 118.679 88.2578 122.656 90.0334C126.634 91.8089 130.078 93.9929 132.99 96.5852C135.902 99.1776 138.157 102.232 139.755 105.747C141.388 109.263 142.223 113.293 142.259 117.839C142.223 124.515 140.518 130.303 137.145 135.204C133.807 140.069 128.977 143.851 122.656 146.55C116.371 149.213 108.789 150.545 99.9112 150.545C91.1044 150.545 83.4339 149.195 76.8999 146.496C70.4013 143.798 65.3232 139.803 61.6655 134.511C58.0433 129.185 56.1435 122.597 55.9659 114.749H78.2848C78.5334 118.407 79.581 121.461 81.4276 123.911C83.3097 126.326 85.8132 128.155 88.9382 129.398C92.0987 130.605 95.6676 131.209 99.6449 131.209C103.551 131.209 106.942 130.641 109.819 129.504C112.731 128.368 114.986 126.788 116.584 124.763C118.182 122.739 118.981 120.413 118.981 117.786C118.981 115.335 118.253 113.276 116.797 111.607C115.376 109.937 113.281 108.517 110.511 107.345C107.777 106.173 104.421 105.108 100.444 104.149L88.5653 101.166C79.3679 98.929 72.1058 95.4311 66.7791 90.6726C61.4524 85.9141 58.8068 79.5043 58.8423 71.4432C58.8068 64.8381 60.5646 59.0675 64.1158 54.1314C67.7024 49.1953 72.6207 45.3423 78.8707 42.5724C85.1207 39.8026 92.223 38.4176 100.178 38.4176C108.274 38.4176 115.341 39.8026 121.378 42.5724C127.45 45.3423 132.173 49.1953 135.547 54.1314C138.92 59.0675 140.661 64.7848 140.767 71.2834H118.661Z" fill="#FAFAFA"/>
</g>
</g>
<defs>
<clipPath id="clip0_173_26494">
<rect width="200" height="200" fill="white"/>
</clipPath>
<clipPath id="clip1_173_26494">
<rect width="200" height="200" rx="16.6667" fill="white"/>
</clipPath>
</defs>
</svg>
